<?xml version="1.0" encoding="utf-8"?>
<!-- Generator: Adobe Illustrator 21.0.0, SVG Export Plug-In . SVG Version: 6.00 Build 0)  -->
<svg version="1.1" id="Layer_1" xmlns="http://www.w3.org/2000/svg" xmlns:xlink="http://www.w3.org/1999/xlink" x="0px" y="0px"
	 width="1400px" height="980px" viewBox="0 0 1400 980" style="enable-background:new 0 0 1400 980;" xml:space="preserve">
<style type="text/css">
	.st0{fill:#7B7B7B;}
</style>
<g>
	<path class="st0" d="M91.5,209.2l76.3,18.8c0.2,0.1,0.4,0.1,0.7,0.1c0.6,0,1.2-0.2,1.7-0.6c0.7-0.5,1-1.3,1-2.2v-16.1h15.5
		c1.5,0,2.7-1.2,2.7-2.7V76.6c0-1.5-1.2-2.7-2.7-2.7H92.2c0,0,0,0,0,0h0c-0.2,0-0.4,0-0.6,0.1c0,0-0.1,0-0.1,0
		c-0.2,0-0.3,0.1-0.4,0.1c-0.1,0-0.1,0.1-0.2,0.1c-0.1,0.1-0.2,0.1-0.3,0.2c0,0,0,0-0.1,0c0,0-0.1,0.1-0.1,0.1
		c-0.1,0.1-0.2,0.2-0.3,0.3c0,0.1-0.1,0.1-0.1,0.2c-0.1,0.1-0.1,0.2-0.2,0.3c0,0.1-0.1,0.1-0.1,0.2c-0.1,0.1-0.1,0.3-0.1,0.4
		c0,0.1,0,0.1,0,0.2c0,0.2-0.1,0.4-0.1,0.6v129.9C89.4,207.8,90.3,208.9,91.5,209.2z M165.8,221.8l-70.9-17.5V80.1l70.9,17.5V221.8z
		 M184,203.8h-12.8V95.4c0-1.3-0.9-2.4-2.1-2.7l-54.5-13.5H184V203.8z"/>
	<path class="st0" d="M115.8,120.9c-0.3,0.7-0.5,1.3-0.6,1.6c-0.1-0.4-0.2-1-0.4-1.7l-2.1-8.3l-2-0.4l-0.5,11l1.3,0.3l0.4-9.4
		l2.5,10l1.2,0.3l3.4-8.5l-0.4,9.2l1.3,0.3l0.5-11l-1.8-0.4L115.8,120.9z"/>
	<polygon class="st0" points="122.1,125.7 129.8,127.3 129.8,126.1 123.6,124.7 123.7,120.9 129.4,122.2 129.4,120.9 123.8,119.6 
		123.9,116.3 129.9,117.6 130,116.3 122.6,114.7 	"/>
	<polygon class="st0" points="138.4,126.9 133.5,117.1 132.1,116.8 131.6,127.8 132.9,128 133.3,119.4 138.3,129.2 139.6,129.5 
		140.1,118.5 138.8,118.2 	"/>
	<path class="st0" d="M148.8,126.9c-0.1,1.4-0.3,2.3-0.8,2.7c-0.4,0.4-1.2,0.5-2.2,0.3c-0.6-0.1-1.1-0.4-1.5-0.7
		c-0.4-0.3-0.7-0.7-0.8-1.2c-0.1-0.5-0.2-1.2-0.2-2.2l0.3-6.3l-1.3-0.3l-0.3,6.4c-0.1,1.2,0,2.1,0.3,2.8c0.2,0.7,0.6,1.3,1.2,1.8
		c0.6,0.5,1.4,0.8,2.3,1.1c1,0.2,1.8,0.2,2.4-0.1c0.6-0.3,1.1-0.7,1.3-1.3c0.3-0.6,0.4-1.5,0.5-2.6l0.3-6.4l-1.3-0.3L148.8,126.9z"
		/>
</g>
<path class="st0" d="M485.3,205.8c1.2,0,2.3-0.8,2.6-2l14.8-53.4c0.2-0.8,0.1-1.7-0.5-2.4c-0.5-0.7-1.3-1.1-2.2-1.1h-10.9
	c2.2-2.6,3.4-6,3.4-9.6c0-8.3-6.8-15.1-15.1-15.1c-1.5,0-3,0.2-4.5,0.7c-2.2-4.1-6.1-6.9-10.7-7.6c-1.2-7.1-7.4-12.6-14.9-12.6
	c-1.6,0-3.3,0.3-4.8,0.8c-2.8-3.8-7.2-6.1-12-6.1c-7.3,0-13.5,5.3-14.8,12.2c-2.6,0.1-5,0.6-7.2,1.5c-4.8-9.3-14.4-15.2-25-15.2
	c-15.5,0-28.2,12.6-28.2,28.2c0,9.3,4.6,17.6,11.6,22.7h-23c-0.9,0-1.7,0.4-2.2,1.1c-0.5,0.7-0.7,1.6-0.5,2.4l14.8,53.4
	c0.3,1.2,1.4,2,2.6,2H485.3z M476,147h-28.5l1.8-14.8l28.4,4.3L476,147z M430.6,103c3.6,0,6.9,2,8.5,5.3c0.3,0.7,0.9,1.2,1.6,1.4
	c0.7,0.2,1.5,0.1,2.1-0.2c1.5-0.8,3-1.2,4.6-1.2c5.3,0,9.6,4.3,9.6,9.6c0,1.5,1.2,2.7,2.7,2.7c4.2,0,7.9,2.7,9.1,6.8
	c0.2,0.8,0.8,1.4,1.6,1.7c0.8,0.3,1.6,0.3,2.3-0.1c1.5-0.8,3-1.2,4.6-1.2c5.3,0,9.6,4.3,9.6,9.6c0,3.8-2.3,7.1-5.5,8.7l1.8-11.5
	c0.1-0.7-0.1-1.5-0.5-2c-0.4-0.6-1.1-1-1.8-1.1l-33.9-5.1c-0.7-0.1-1.5,0.1-2.1,0.5c-0.6,0.4-1,1.1-1.1,1.9l-2.2,18.3h-11.3
	c4.4-3.9,7.1-9.6,7.1-15.9c0-10.1-7.1-18.6-16.5-20.8C422.3,106.1,426.1,103,430.6,103z M402.2,147h-2c0.4-0.3,0.8-0.5,1.1-0.8
	C401.6,146.4,401.9,146.7,402.2,147z M400.6,131.1c0-8.8,7.1-15.9,15.9-15.9c0.4,0,0.7,0,1.1,0.1c0.2,0.1,0.5,0.1,0.7,0.1
	c0.1,0,0.1,0,0.2,0c7.8,1,13.9,7.7,13.9,15.7c0,8.8-7.1,15.9-15.9,15.9S400.6,139.9,400.6,131.1z M360.8,124.3
	c0-12.5,10.2-22.7,22.7-22.7c8.6,0,16.4,4.8,20.2,12.4c-5.3,3.9-8.7,10.1-8.7,17.2c0,3.9,1.1,7.5,2.9,10.7
	c-4.1,3.4-9.1,5.2-14.4,5.2C371,147,360.8,136.8,360.8,124.3z M347.5,152.4h96.9h32.8c0.1,0,0.2,0,0.4,0c0.3,0,0.5,0,0.8,0h18.2
	l-13.3,47.9H360.8L347.5,152.4z"/>
<path class="st0" d="M684,165.5v34c-9.4,2.2-15.9,7.7-15.9,14.4c0,1.5,1.2,2.7,2.7,2.7h44.5c1.5,0,2.7-1.2,2.7-2.7
	c0-6.7-6.5-12.2-15.9-14.4v-34c16.9-2.1,30.9-13.4,36.9-28.7c0.2,0,0.3,0,0.5,0c7.1,0,13.5-2.9,18.2-7.5c0,0,0,0,0.1,0
	c0,0,0,0,0-0.1c4.6-4.7,7.5-11.1,7.5-18.2c0-14.2-11.6-25.8-25.8-25.8c-7.1,0-13.5,2.9-18.2,7.5c0,0,0,0-0.1,0c0,0,0,0,0,0.1
	c-4,4.1-6.7,9.4-7.4,15.4h-67.3c-1.5,0-2.7,1.2-2.7,2.7v8.9C643.9,143.4,661.4,162.7,684,165.5z M711.7,211.1h-37.3
	c2.4-3.8,9.4-7.2,18.6-7.2S709.3,207.3,711.7,211.1z M696.6,198.5h-7.1v-32.6c0.1,0,0.2,0,0.2,0h6.6c0.1,0,0.2,0,0.2,0V198.5z
	 M700.5,160.2c-0.3-0.1-0.7-0.2-1.1-0.2c-0.5,0-1,0.1-1.4,0.4c-0.5,0-1.1,0-1.6,0h-6.6c-0.5,0-1.1,0-1.6,0c-0.4-0.2-0.9-0.4-1.4-0.4
	c-0.4,0-0.8,0.1-1.1,0.2c-18.2-1.8-32.9-15.8-35.8-33.8h86.4c-0.3,1.7-0.6,3.3-1.1,4.9c-0.8,0.4-1.5,1.1-1.6,2.1
	c-0.1,0.6,0,1.2,0.3,1.7C728.3,148.7,715.6,158.7,700.5,160.2z M742.3,120v-2.3l9.5,9.5c-3.1,2.3-6.8,3.8-10.9,4.1
	C741.8,127.7,742.3,123.9,742.3,120z M755.7,123.3l-12.3-12.3l12.3-12.3c2.6,3.4,4.2,7.7,4.2,12.3S758.3,119.9,755.7,123.3z
	 M751.8,94.9l-12.3,12.3l-12.3-12.3c3.4-2.6,7.7-4.2,12.3-4.2C744.1,90.8,748.4,92.3,751.8,94.9z M723.4,98.8l9.5,9.5h-13.5
	C719.9,104.8,721.3,101.5,723.4,98.8z M649.3,113.8h87.5v6.2c0,0.3,0,0.6,0,1h-87.4c0-0.3,0-0.6,0-1V113.8z"/>
<path class="st0" d="M932.6,208.3c0.7,0,1.4-0.3,1.9-0.8l11.7-11.7c3.4,2.5,7.4,3.8,11.5,3.8c4.9,0,9.8-1.9,13.5-5.6c0,0,0,0,0,0
	c6.8-6.8,7.4-17.5,1.8-25l2.6-2.6l9.7,9.7c0.5,0.5,1.2,0.8,1.9,0.8c0.7,0,1.4-0.3,1.9-0.8l23.2-23.2c0.5-0.5,0.8-1.2,0.8-1.9
	c0-0.7-0.3-1.4-0.8-1.9l-9.7-9.7l2.6-2.6c3.3,2.5,7.3,3.8,11.5,3.8c5.1,0,9.9-2,13.5-5.6c6.8-6.8,7.4-17.5,1.8-25l11.7-11.7
	c1.1-1.1,1.1-2.8,0-3.9c-1.1-1.1-2.8-1.1-3.9,0l-11.7,11.7c-3.3-2.5-7.3-3.8-11.5-3.8c-5.1,0-9.9,2-13.5,5.6
	c-6.8,6.8-7.4,17.5-1.8,25l-2.6,2.6l-9.7-9.7c-1-1-2.8-1-3.9,0L962,149c-1.1,1.1-1.1,2.8,0,3.9l9.7,9.7l-2.6,2.6
	c-7.5-5.6-18.2-5-25,1.8c-6.8,6.8-7.4,17.5-1.8,25l-11.7,11.7c-1.1,1.1-1.1,2.8,0,3.9C931.2,208,931.9,208.3,932.6,208.3z
	 M1007,111.8c2.6-2.6,6-4,9.7-4c3.7,0,7.1,1.4,9.7,4c5.3,5.3,5.3,14,0,19.3c-2.6,2.6-6,4-9.7,4c-3.7,0-7.1-1.4-9.7-4
	C1001.7,125.8,1001.7,117.1,1007,111.8z M987.1,131.6l9.7,9.7c0,0,0,0,0,0c0,0,0,0,0,0l9.7,9.7l-19.3,19.3l-9.7-9.7c0,0,0,0,0,0
	s0,0,0,0l-9.7-9.7L987.1,131.6z M948,170.8c2.7-2.7,6.2-4,9.7-4c3.5,0,7,1.3,9.7,4c5.3,5.3,5.3,14,0,19.3c-5.3,5.3-14,5.3-19.3,0
	C942.6,184.8,942.6,176.1,948,170.8z"/>
<path class="st0" d="M1267,147.7v53.6H1256c-1.5,0-2.7,1.2-2.7,2.7c0,1.5,1.2,2.7,2.7,2.7h27.4c1.5,0,2.7-1.2,2.7-2.7
	c0-1.5-1.2-2.7-2.7-2.7h-10.9v-53.6l36.8-48.3c0.6-0.8,0.7-1.9,0.3-2.9c-0.5-0.9-1.4-1.5-2.5-1.5h-74.8c-1,0-2,0.6-2.5,1.5
	c-0.5,0.9-0.4,2,0.3,2.9L1267,147.7z M1269.7,142.3l-22.5-29.5h45L1269.7,142.3z M1301.6,100.5l-5.2,6.8h-53.3l-5.2-6.8H1301.6z"/>
<g>
	<path class="st0" d="M75.6,442.1c0.2,0,0.4,0,0.6-0.1l127.6-28.8c1.2-0.3,2.1-1.4,2.1-2.7v-57.5c0-0.1,0-0.2,0-0.3
		c0-0.1,0-0.1,0-0.2c0-0.2-0.1-0.5-0.2-0.7c0,0,0-0.1-0.1-0.1c-0.1-0.2-0.2-0.3-0.4-0.5c-0.1-0.1-0.1-0.1-0.2-0.2
		c-0.1-0.1-0.1-0.1-0.2-0.2c-0.1-0.1-0.2-0.1-0.3-0.2c0,0-0.1-0.1-0.1-0.1l-52.9-28.8c-1-0.5-2.1-0.4-3,0.2l-74.7,57.6
		c-0.1,0.1-0.1,0.2-0.2,0.2c-0.1,0.1-0.2,0.2-0.3,0.4c-0.1,0.1-0.2,0.3-0.2,0.4c-0.1,0.1-0.1,0.3-0.2,0.4c0,0.2-0.1,0.3-0.1,0.5
		c0,0.1-0.1,0.2-0.1,0.3v57.5c0,0.8,0.4,1.6,1,2.1C74.4,441.9,75,442.1,75.6,442.1z M200.5,408.4L78.4,436V384l122.2-27.5V408.4z
		 M150.6,327.5l45,24.5L87.1,376.5L150.6,327.5z"/>
	<path class="st0" d="M104.8,408.1c5.4,0,9.7-4.4,9.7-9.7s-4.4-9.7-9.7-9.7s-9.7,4.4-9.7,9.7S99.5,408.1,104.8,408.1z M104.8,394.1
		c2.4,0,4.3,1.9,4.3,4.3c0,2.4-1.9,4.3-4.3,4.3s-4.3-1.9-4.3-4.3C100.6,396,102.5,394.1,104.8,394.1z"/>
	<path class="st0" d="M148.2,412.2c5.4,0,9.7-4.4,9.7-9.7s-4.4-9.7-9.7-9.7c-5.4,0-9.7,4.4-9.7,9.7S142.8,412.2,148.2,412.2z
		 M148.2,398.2c2.4,0,4.3,1.9,4.3,4.3c0,2.4-1.9,4.3-4.3,4.3s-4.3-1.9-4.3-4.3C143.9,400.1,145.8,398.2,148.2,398.2z"/>
	<path class="st0" d="M175.6,389.1c5.4,0,9.7-4.4,9.7-9.7c0-5.4-4.4-9.7-9.7-9.7c-5.4,0-9.7,4.4-9.7,9.7
		C165.9,384.8,170.3,389.1,175.6,389.1z M175.6,375.1c2.4,0,4.3,1.9,4.3,4.3c0,2.4-1.9,4.3-4.3,4.3s-4.3-1.9-4.3-4.3
		C171.4,377,173.3,375.1,175.6,375.1z"/>
</g>
<path class="st0" d="M403.7,436.7v3.6c0,1.5,1.2,2.7,2.7,2.7h31.1c1.5,0,2.7-1.2,2.7-2.7v-3.6c27.5-8.1,46.6-33.4,46.6-62.3
	c0-1.5-1.2-2.7-2.7-2.7H397L366.9,322c-0.8-1.3-2.5-1.7-3.8-0.9c-1.3,0.8-1.7,2.5-0.9,3.8l28.4,46.8h-30.7c-1.5,0-2.7,1.2-2.7,2.7
	C357.1,403.3,376.2,428.6,403.7,436.7z M481.4,377.1c-1.2,26-19.1,48.3-44.5,54.8c-1.2,0.3-2.1,1.4-2.1,2.6v2.9h-25.6v-2.9
	c0-1.2-0.8-2.3-2.1-2.6c-25.3-6.5-43.3-28.8-44.5-54.8H481.4z"/>
<path class="st0" d="M791.5,418.4h-6.9c-1.3-37.7-29.3-69.8-66.5-76.2V341c0-7.4-6-13.5-13.5-13.5c-7.4,0-13.5,6-13.5,13.5v1.3
	c-37.2,6.3-65.2,38.4-66.5,76.2h-6.9c-1.2,0-2.2,0.8-2.6,1.9c-0.4,1.1,0,2.4,1,3.1l16.9,12.3c0.5,0.3,1,0.5,1.6,0.5h140
	c0.6,0,1.1-0.2,1.6-0.5l16.9-12.3c1-0.7,1.4-1.9,1-3.1C793.7,419.2,792.7,418.4,791.5,418.4z M694.2,347.3c1.4-0.2,2.4-1.3,2.4-2.7
	V341c0-4.4,3.6-8,8-8c4.4,0,8,3.6,8,8v3.6c0,1.4,1,2.5,2.4,2.7c35.7,5,62.8,35.3,64.2,71.1H630C631.4,382.6,658.5,352.3,694.2,347.3
	z M773.7,430.7H635.5l-9.4-6.8h1.2h154.6h1.2L773.7,430.7z"/>
<path class="st0" d="M1015.3,371.1c0-0.1,0-0.2,0-0.3l-4.9-47.7c-0.1-1.4-1.3-2.5-2.7-2.5h-41c-1.4,0-2.6,1.1-2.7,2.5l-4.9,47.7
	c0,0.1,0,0.2,0,0.3c0,14.6,11.2,26.6,25.4,28v38.4h-8.1c-1.5,0-2.7,1.2-2.7,2.7c0,1.5,1.2,2.7,2.7,2.7H998c1.5,0,2.7-1.2,2.7-2.7
	c0-1.5-1.2-2.7-2.7-2.7h-8.1v-38.4C1004.1,397.7,1015.3,385.7,1015.3,371.1z M1005.2,326.2l1.6,15h-39.1l1.6-15H1005.2z
	 M964.5,371.2l2.5-24.6h40.3l2.5,24.6c-0.1,12.4-10.2,22.5-22.7,22.5C974.7,393.7,964.6,383.7,964.5,371.2z"/>
<path class="st0" d="M225.1,627.1h-46.3l33.2-14.6c0.8-0.3,1.3-1,1.5-1.8c0.2-0.8,0-1.7-0.5-2.3c-11.4-15.2-27.9-26-46.5-30.3
	l-1.3-0.3c-0.8-0.2-1.7,0-2.3,0.5c-0.7,0.5-1,1.3-1,2.2l0.1,5.5c-6.5-3.6-13.5-6.3-20.8-8l-1.3-0.3c-0.8-0.2-1.7,0-2.3,0.5
	c-0.7,0.5-1,1.3-1,2.2l0.1,5.5c-6.5-3.6-13.5-6.3-20.8-8l-1.3-0.3c-0.8-0.2-1.7,0-2.3,0.5c-0.7,0.5-1,1.3-1,2.2l0.5,25.9
	c-0.5-0.1-1-0.2-1.5-0.2h-4.1c1-1.6,1.5-3.5,1.5-5.5c0-5.6-4.2-10.2-9.6-10.9c-1.7-1.9-4.2-3-6.8-3c-4.2,0-7.7,2.8-8.8,6.5
	c-4.6,0.5-8.3,4.4-8.3,9.2c0,1.3,0.3,2.6,0.8,3.8h-3.4c-3.6,0-6.5,2.9-6.5,6.5v14.4H53.7c-1.1,0-2.1,0.7-2.6,1.8
	c-0.4,1.1-0.1,2.3,0.7,3l16.7,15c0.5,0.5,1.2,0.7,1.8,0.7h138c0.7,0,1.3-0.3,1.8-0.7l16.7-15c0.8-0.8,1.1-2,0.7-3
	C227.3,627.8,226.3,627.1,225.1,627.1z M137.7,627.1h-9.4l9.4-4.1L137.7,627.1z M163,627.1h-9.4l9.4-4.1L163,627.1z M206.6,609
	l-38.2,16.7l-0.7-34.8c0,0,0-0.1,0-0.1l-0.1-6.8C182.9,588,196.6,596.8,206.6,609z M162.3,592.5l0.5,24.6l-19.7,8.6l-0.1-6.9
	c0,0,0,0,0,0l-0.6-27.9c0,0,0-0.1,0-0.1l-0.1-6.8C149.3,585.9,156,588.7,162.3,592.5z M137,592.5l0.5,24.6l-19.7,8.6L117,584
	C124,585.9,130.7,588.7,137,592.5z M79.7,602.5c0-2.1,1.7-3.8,3.8-3.8c0.3,0,0.5,0,0.8,0.1c0.8,0.2,1.7,0,2.3-0.6
	c0.6-0.5,1-1.3,1-2.2c0,0,0-0.1,0-0.2c0.1-2,1.7-3.6,3.8-3.6c1.3,0,2.4,0.6,3.1,1.7c0.5,0.8,1.4,1.3,2.4,1.2c3,0,5.5,2.5,5.5,5.5
	c0,3.1-2.5,5.5-5.5,5.5H83.5C81.4,606.3,79.7,604.6,79.7,602.5z M70.6,612.8c0-0.6,0.5-1,1-1h11.8h13.3h13.6c0.6,0,1,0.5,1,1v14.4
	H70.6V612.8z M207.4,642.2H71.5l-10.6-9.5h7.1h46.3h0.9c0,0,0,0,0,0c0,0,0,0,0.1,0h25.2c0,0,0,0,0,0c0,0,0,0,0.1,0h25.2c0,0,0,0,0,0
	c0,0,0,0,0.1,0H218L207.4,642.2z"/>
<g>
	<path class="st0" d="M420.5,666.3c29.5,0,53.6-24,53.6-53.6s-24-53.6-53.6-53.6c-29.5,0-53.6,24-53.6,53.6S391,666.3,420.5,666.3z
		 M420.5,564.6c26.5,0,48.1,21.6,48.1,48.1c0,26.5-21.6,48.1-48.1,48.1c-26.5,0-48.1-21.6-48.1-48.1
		C372.4,586.2,394,564.6,420.5,564.6z"/>
	<path class="st0" d="M420.5,651.4c21.3,0,38.7-17.3,38.7-38.7S441.9,574,420.5,574c-21.3,0-38.7,17.4-38.7,38.7
		S399.2,651.4,420.5,651.4z M420.5,579.5c18.3,0,33.2,14.9,33.2,33.2c0,18.3-14.9,33.2-33.2,33.2s-33.2-14.9-33.2-33.2
		C387.3,594.4,402.2,579.5,420.5,579.5z"/>
	<path class="st0" d="M337.5,555.5c-0.8-0.3-1.7-0.1-2.5,0.4s-1.1,1.3-1.1,2.2v68.6c0,0,0,0.1,0,0.1v40.6c0,1.5,1.2,2.7,2.7,2.7
		c1.5,0,2.7-1.2,2.7-2.7v-39.1l9-5.4c5.3-3.2,8.4-9,8.2-15.2C354.8,562.5,339.3,556.1,337.5,555.5z M345.5,618.1l-6.1,3.7v-58.2
		c4.2,4.8,10.6,16.5,11.7,44.2C351.2,612,349.1,616,345.5,618.1z"/>
	<path class="st0" d="M505.1,557.3c-1.5,0.1-2.6,1.4-2.5,2.9l2,30.6c0,3.9-2.6,7.3-6.2,8.4v-41.1c0-1.5-1.2-2.7-2.7-2.7
		c-1.5,0-2.7,1.2-2.7,2.7v41.1c-3.6-1.2-6.2-4.4-6.2-8.2l2.1-30.8c0.1-1.5-1-2.8-2.5-2.9c-1.5-0.1-2.8,1-2.9,2.5l-2.1,31
		c0,7,5,12.8,11.6,14.1v62.5c0,1.5,1.2,2.7,2.7,2.7c1.5,0,2.7-1.2,2.7-2.7v-62.5c6.6-1.3,11.6-7.1,11.6-14.3l-2.1-30.8
		C507.9,558.3,506.6,557.2,505.1,557.3z"/>
</g>
<path class="st0" d="M742.3,563.8c1.4,0.6,3,0,3.6-1.4c0.6-1.4,0-3-1.4-3.6l-16.1-6.9c-1.2-0.5-2.7-0.1-3.4,1.1l-13.5,21.7h-45.1
	c-1.4,0-2.6,1.1-2.7,2.6l-0.7,10.6c0,22,17.2,40,38.8,41.4v39.2h-10.3c-1.5,0-2.7,1.2-2.7,2.7s1.2,2.7,2.7,2.7h26
	c1.5,0,2.7-1.2,2.7-2.7s-1.2-2.7-2.7-2.7h-10.3v-39.2c21.6-1.4,38.8-19.5,38.8-41.6l-0.6-10.4c-0.1-1.4-1.3-2.6-2.7-2.6h-24.8
	l10.5-16.8L742.3,563.8z M740.7,587.7c0,19.9-16.2,36.1-36.1,36.1s-36.1-16.2-36.1-35.9l0.5-7.8h71.2L740.7,587.7z"/>
<g>
	<path class="st0" d="M956.6,615c9.3,0,16.6-4.6,16.6-10.5s-7.3-10.5-16.6-10.5s-16.6,4.6-16.6,10.5S947.3,615,956.6,615z
		 M956.6,599.5c6.8,0,11.1,3,11.1,5s-4.3,5-11.1,5s-11.1-3-11.1-5S949.8,599.5,956.6,599.5z"/>
	<path class="st0" d="M1017.7,563.1c-20,0-36.9,8.1-41.4,19.2c-5.9-1.8-12.6-2.8-19.7-2.8c-23.9,0-42.6,11-42.6,25v32.8
		c0,14,18.7,25,42.6,25c20.4,0,37.1-8.1,41.4-19.2c6,1.8,12.8,2.8,19.7,2.8c23.9,0,42.6-11,42.6-25v-32.8
		C1060.3,574.1,1041.6,563.1,1017.7,563.1z M956.6,584.9c7.3,0,14.3,1.2,20.1,3.2c0.3,0.2,0.6,0.3,0.9,0.3c0,0,0,0,0.1,0
		c9.6,3.6,16.1,9.5,16.1,16c0,10.6-17,19.6-37.1,19.6s-37.1-9-37.1-19.6C919.5,593.9,936.5,584.9,956.6,584.9z M956.6,656.9
		c-20.1,0-37.1-9-37.1-19.6V617c7.2,7.6,21,12.6,37.1,12.6s29.9-5,37.1-12.6v20.4c0,0.7-0.1,1.3-0.2,2c0,0,0,0,0,0
		C991.5,649,975.4,656.9,956.6,656.9z M1054.8,620.9c0,10.6-17,19.6-37.1,19.6c-6.5,0-12.9-0.9-18.5-2.7c0-0.2,0-0.3,0-0.5v-26.6
		c5.7,1.6,12.1,2.5,18.5,2.5c16.1,0,29.9-5,37.1-12.6V620.9z M1017.7,607.7c-6.5,0-12.9-0.9-18.5-2.7v-0.5c0-8.5-6.9-16-17.7-20.5
		c3.6-8.9,18.8-15.5,36.2-15.5c20.1,0,37.1,9,37.1,19.6C1054.8,598.7,1037.8,607.7,1017.7,607.7z"/>
	<path class="st0" d="M1017.7,577.6c-9.3,0-16.6,4.6-16.6,10.5c0,5.9,7.3,10.5,16.6,10.5c9.3,0,16.6-4.6,16.6-10.5
		C1034.3,582.2,1027,577.6,1017.7,577.6z M1017.7,593.1c-6.8,0-11.1-3-11.1-5c0-2,4.3-5,11.1-5c6.8,0,11.1,3,11.1,5
		C1028.8,590.1,1024.5,593.1,1017.7,593.1z"/>
</g>
<g>
	<path class="st0" d="M1272.1,561.1c-0.5-0.8-1.4-1.4-2.4-1.4c-1,0-1.9,0.5-2.4,1.4l-58.4,100.5c-0.5,0.8-0.5,1.9,0,2.7
		c0.5,0.8,1.4,1.4,2.4,1.4h116.8c1,0,1.9-0.5,2.4-1.4c0.5-0.8,0.5-1.9,0-2.7L1272.1,561.1z M1269.7,567.9l24.8,42.7
		c-5.6,1.7-9.9,6.6-10.5,12.7l-1.2,11.3c-0.1,0.7-1.2,0.7-1.3,0l-2.5-16.8c-0.7-4.6-4.6-8-9.2-8c-4.7,0-8.5,3.3-9.2,8l-2.5,16.8
		c-0.1,0.7-1.2,0.6-1.3,0l-1.2-11.3c-0.7-6.1-4.9-11-10.5-12.7L1269.7,567.9z M1216.1,660.2l25.9-44.6c4.2,0.7,7.5,4,8,8.4l1.2,11.3
		c0.3,3.1,3,5.5,6.1,5.5c3,0,5.6-2.2,6.1-5.2l2.5-16.8c0.3-1.9,1.9-3.3,3.8-3.3s3.5,1.4,3.8,3.3l2.5,16.8c0.4,3,3.1,5.2,6.1,5.2
		c3.1,0,5.8-2.4,6.1-5.5l1.2-11.3c0.5-4.3,3.8-7.7,8-8.4l25.9,44.6H1216.1z"/>
	<circle class="st0" cx="1236.8" cy="649.2" r="3.1"/>
	<circle class="st0" cx="1302.6" cy="649.2" r="3.1"/>
	<circle class="st0" cx="1268.7" cy="643" r="3.1"/>
</g>
<path class="st0" d="M206.6,803.7c-1.9-1.5-4-2.1-6.2-1.7l-86,17.2c0,0,0,0,0,0l-37.1,7.4c-0.2,0-0.4,0.1-0.5,0.2
	c-7.9,2.2-12.1,17.5-12.1,31.2c0,11.9,2.9,21.7,7.6,25.5c1.5,1.2,3.1,1.8,4.8,1.8c0.5,0,0.9,0,1.4-0.1l123.1-24.7
	c8.2-1.6,12.7-17.4,12.7-31.4C214.2,817.3,211.3,807.5,206.6,803.7z M166.8,814.3l-22.5,24.6l-22.5-15.6L166.8,814.3z M70.1,858
	c0-14.9,4.9-25.3,8.3-26c0,0,0,0,0,0l0,0c0.1,0,0.2,0,0.3,0c0.3,0,0.7,0.1,1.3,0.6c2.7,2.2,5.6,9.8,5.6,21.3c0,14.9-4.9,25.3-8.3,26
	c-0.2,0-0.8,0.2-1.6-0.6C73,877.1,70.1,869.5,70.1,858z M200.5,855.2L86.1,878.1c3.3-6.2,5-15.6,5-24.3c0-10-2.1-18.5-5.5-23.2
	l28.8-5.8l28.8,20c0.5,0.3,1,0.5,1.6,0.5c0.7,0,1.5-0.3,2-0.9l29.1-31.9l25.7-5.2c0.2,0,0.8-0.2,1.6,0.6c2.7,2.2,5.6,9.8,5.6,21.3
	C208.7,844,203.8,854.5,200.5,855.2z"/>
<path class="st0" d="M472.3,805.3H420l-9.1-18.6c-0.5-1.1-1.7-1.7-2.9-1.5l-36.7,5.5c-1.5,0.2-2.5,1.6-2.3,3.1
	c0.2,1.5,1.6,2.5,3.1,2.3l34.7-5.2l7,14.4h-20c-1.5,0-2.7,1.2-2.7,2.7v32.9c0,2.4,0.7,4.8,1.9,6.9c4.9,8.1,7.5,17.3,7.5,26.7v24.7
	c0,1.5,1.2,2.7,2.7,2.7h59.6c1.5,0,2.7-1.2,2.7-2.7v-24.7c0-9.4,2.6-18.7,7.5-26.7c1.3-2.1,1.9-4.5,1.9-6.9V808
	C475,806.5,473.8,805.3,472.3,805.3z M469.6,810.8v8.8H427l-4.3-8.8H469.6z M416.6,810.8l4.3,8.8h-24.3v-8.8H416.6z M468.4,845
	c-5.4,8.9-8.3,19.1-8.3,29.6v22h-54.1v-22c0-10.4-2.9-20.7-8.3-29.6c-0.7-1.2-1.1-2.6-1.1-4.1v-15.9h72.9v15.9
	C469.6,842.4,469.2,843.8,468.4,845z"/>
<g>
	<path class="st0" d="M765.4,865.7H757c2.1-1.4,4.1-2.9,6-4.8c1.1-1.1,1.1-2.8,0-3.9l-45.6-45.6c-1.1-1.1-2.8-1.1-3.9,0
		c-0.3,0.3-0.5,0.6-0.8,0.9c-6.9-9.6-18.2-15.5-30.2-15.5c-20.5,0-37.2,16.7-37.2,37.2c0,13.4,7.2,25.2,17.9,31.7h-19.4
		c-5.9,0-10.6,4.8-10.6,10.6v3.3c0,5.9,4.8,10.6,10.6,10.6h121.6c5.9,0,10.6-4.8,10.6-10.6v-3.3C776,870.5,771.2,865.7,765.4,865.7z
		 M715.5,817.4l41.5,41.5c-5.3,4.4-11.8,6.8-18.8,6.8h-0.1c-7.9,0-15.3-3.1-20.8-8.6c-5.6-5.6-8.6-13-8.6-20.9
		C708.8,829.3,711.1,822.7,715.5,817.4z M710.9,858c0.8,1,1.7,2,2.6,2.9c1.8,1.8,3.8,3.4,6,4.8H702
		C705.3,863.7,708.3,861.1,710.9,858z M650.9,834c0-17.5,14.2-31.7,31.7-31.7c10.8,0,20.8,5.5,26.6,14.5
		c-7.3,10.9-7.8,25.1-1.4,36.4c-6,7.8-15.3,12.5-25.2,12.5C665.1,865.7,650.9,851.5,650.9,834z M770.5,879.7c0,2.8-2.3,5.2-5.2,5.2
		H643.8c-2.8,0-5.2-2.3-5.2-5.2v-3.3c0-2.8,2.3-5.2,5.2-5.2h94.4c0,0,0,0,0,0c0,0,0,0,0,0h27.1c2.8,0,5.2,2.3,5.2,5.2V879.7z"/>
	<path class="st0" d="M682.6,816.7c-1.5,0-2.7,1.2-2.7,2.7v4.7c0,1.5,1.2,2.7,2.7,2.7s2.7-1.2,2.7-2.7v-4.7
		C685.3,817.9,684.1,816.7,682.6,816.7z"/>
	<path class="st0" d="M675.3,826.7l-4.1-2.3c-1.3-0.8-3-0.3-3.7,1c-0.8,1.3-0.3,3,1,3.7l4.1,2.3c0.4,0.2,0.9,0.4,1.4,0.4
		c0.9,0,1.9-0.5,2.4-1.4C677.1,829.1,676.6,827.5,675.3,826.7z"/>
	<path class="st0" d="M672.6,836.6l-4.1,2.3c-1.3,0.8-1.8,2.4-1,3.7c0.5,0.9,1.4,1.4,2.4,1.4c0.5,0,0.9-0.1,1.4-0.4l4.1-2.3
		c1.3-0.8,1.8-2.4,1-3.7C675.6,836.3,673.9,835.9,672.6,836.6z"/>
	<path class="st0" d="M693.8,824.4l-4.1,2.3c-1.3,0.8-1.8,2.4-1,3.7c0.5,0.9,1.4,1.4,2.4,1.4c0.5,0,0.9-0.1,1.4-0.4l4.1-2.3
		c1.3-0.8,1.8-2.4,1-3.7S695.1,823.6,693.8,824.4z"/>
	<path class="st0" d="M696.6,839l-4.1-2.3c-1.3-0.8-3-0.3-3.7,1c-0.8,1.3-0.3,3,1,3.7l4.1,2.3c0.4,0.2,0.9,0.4,1.4,0.4
		c0.9,0,1.9-0.5,2.4-1.4C698.3,841.4,697.9,839.7,696.6,839z"/>
	<path class="st0" d="M682.6,841.2c-1.5,0-2.7,1.2-2.7,2.7v4.7c0,1.5,1.2,2.7,2.7,2.7s2.7-1.2,2.7-2.7V844
		C685.3,842.5,684.1,841.2,682.6,841.2z"/>
</g>
<path class="st0" d="M997.5,814v-30.3c0-1.5-1.2-2.7-2.7-2.7h-15.2c-1.5,0-2.7,1.2-2.7,2.7V814c-6.4,1.3-11.2,6.9-11.2,13.7v75.7
	c0,1.5,1.2,2.7,2.7,2.7h37.7c1.5,0,2.7-1.2,2.7-2.7v-75.7C1008.7,821,1003.9,815.3,997.5,814z M992,786.5v3.6h-9.7v-3.6H992z
	 M1003.3,900.7H971v-72.9c0-4.7,3.8-8.5,8.5-8.5c1.5,0,2.7-1.2,2.7-2.7v-21h9.7v21c0,1.5,1.2,2.7,2.7,2.7c4.7,0,8.5,3.8,8.5,8.5
	V900.7z"/>
<g>
	<path class="st0" d="M1343,398.9l5.1-4.8c1.1-1,1.2-2.8,0.1-3.9c-1-1.1-2.8-1.2-3.9-0.1l-3.4,3.2c-2.5-9-10.7-15.7-20.5-15.7H1219
		c-9.8,0-18,6.7-20.5,15.7l-3.4-3.2c-1.1-1-2.8-1-3.9,0.1c-1,1.1-1,2.8,0.1,3.9l5.1,4.8l-5.1,4.8c-1.1,1-1.2,2.8-0.1,3.9
		c0.5,0.6,1.3,0.9,2,0.9c0.7,0,1.3-0.2,1.9-0.7l3.4-3.2c2.5,9,10.7,15.7,20.5,15.7h101.5c9.8,0,18-6.7,20.5-15.7l3.4,3.2
		c0.5,0.5,1.2,0.7,1.9,0.7c0.7,0,1.5-0.3,2-0.9c1-1.1,1-2.8-0.1-3.9L1343,398.9z M1320.5,414.7H1219c-8.7,0-15.8-7.1-15.8-15.8
		s7.1-15.8,15.8-15.8h101.5c8.7,0,15.8,7.1,15.8,15.8S1329.2,414.7,1320.5,414.7z"/>
	<path class="st0" d="M1261.4,357.2c-1.3,4.3-0.1,8.9,3,12c0.5,0.5,1.2,0.8,1.9,0.8s1.4-0.3,1.9-0.8c1.1-1.1,1.1-2.8,0-3.9
		c-1.7-1.7-2.4-4.3-1.7-6.6l0.7-2.5c1.3-4.3,0.1-8.9-3-12c-1.1-1.1-2.8-1.1-3.9,0c-1.1,1.1-1.1,2.8,0,3.9c1.7,1.7,2.4,4.3,1.7,6.6
		L1261.4,357.2z"/>
	<path class="st0" d="M1272.1,357.2c-1.3,4.3-0.1,8.9,3,12c0.5,0.5,1.2,0.8,1.9,0.8s1.4-0.3,1.9-0.8c1.1-1.1,1.1-2.8,0-3.9
		c-1.7-1.7-2.4-4.3-1.7-6.6l0.7-2.5c1.3-4.3,0.1-8.9-3-12c-1.1-1.1-2.8-1.1-3.9,0c-1.1,1.1-1.1,2.8,0,3.9c1.7,1.7,2.4,4.3,1.7,6.6
		L1272.1,357.2z"/>
</g>
<g>
	<path class="st0" d="M1316.3,799.8c0-9.6-7.8-17.3-17.3-17.3c-6.1,0-11.5,3.2-14.6,8c-3.1-4.8-8.5-8-14.6-8s-11.5,3.2-14.6,8
		c-3.1-4.8-8.5-8-14.6-8c-9.6,0-17.3,7.8-17.3,17.3c0,6.1,3.2,11.5,8,14.6c-4.8,3.1-8,8.5-8,14.6c0,6.1,3.2,11.5,8,14.6
		c-4.8,3.1-8,8.5-8,14.6s3.2,11.5,8,14.6c-4.8,3.1-8,8.5-8,14.6c0,9.6,7.8,17.3,17.3,17.3c6.1,0,11.5-3.2,14.6-8
		c3.1,4.8,8.5,8,14.6,8s11.5-3.2,14.6-8c3.1,4.8,8.5,8,14.6,8c9.6,0,17.3-7.8,17.3-17.3c0-6.1-3.2-11.5-8-14.6c4.8-3.1,8-8.5,8-14.6
		s-3.2-11.5-8-14.6c4.8-3.1,8-8.5,8-14.6c0-6.1-3.2-11.5-8-14.6C1313.1,811.3,1316.3,805.9,1316.3,799.8z M1298.9,811.7
		c-1.5,0-2.7,1.2-2.7,2.7s1.2,2.7,2.7,2.7c6.5,0,11.9,5.3,11.9,11.9s-5.3,11.9-11.9,11.9c-1.5,0-2.7,1.2-2.7,2.7s1.2,2.7,2.7,2.7
		c6.5,0,11.9,5.3,11.9,11.9s-5.3,11.9-11.9,11.9c-1.5,0-2.7,1.2-2.7,2.7s1.2,2.7,2.7,2.7c6.5,0,11.9,5.3,11.9,11.9
		c0,6.5-5.3,11.9-11.9,11.9c-6.5,0-11.9-5.3-11.9-11.9c0-1.5-1.2-2.7-2.7-2.7c-1.5,0-2.7,1.2-2.7,2.7c0,6.5-5.3,11.9-11.9,11.9
		c-6.5,0-11.9-5.3-11.9-11.9c0-1.5-1.2-2.7-2.7-2.7s-2.7,1.2-2.7,2.7c0,6.5-5.3,11.9-11.9,11.9s-11.9-5.3-11.9-11.9
		c0-6.5,5.3-11.9,11.9-11.9c1.5,0,2.7-1.2,2.7-2.7s-1.2-2.7-2.7-2.7c-6.5,0-11.9-5.3-11.9-11.9s5.3-11.9,11.9-11.9
		c1.5,0,2.7-1.2,2.7-2.7s-1.2-2.7-2.7-2.7c-6.5,0-11.9-5.3-11.9-11.9s5.3-11.9,11.9-11.9c1.5,0,2.7-1.2,2.7-2.7s-1.2-2.7-2.7-2.7
		c-6.5,0-11.9-5.3-11.9-11.9c0-6.5,5.3-11.9,11.9-11.9s11.9,5.3,11.9,11.9c0,1.5,1.2,2.7,2.7,2.7s2.7-1.2,2.7-2.7
		c0-6.5,5.3-11.9,11.9-11.9c6.5,0,11.9,5.3,11.9,11.9c0,1.5,1.2,2.7,2.7,2.7c1.5,0,2.7-1.2,2.7-2.7c0-6.5,5.3-11.9,11.9-11.9
		c6.5,0,11.9,5.3,11.9,11.9C1310.8,806.3,1305.5,811.7,1298.9,811.7z"/>
	<path class="st0" d="M1269.7,810.5c-5,0-9.1,4.1-9.1,9.1c0,5,4.1,9.1,9.1,9.1s9.1-4.1,9.1-9.1
		C1278.8,814.6,1274.7,810.5,1269.7,810.5z M1269.7,823.2c-2,0-3.6-1.6-3.6-3.6c0-2,1.6-3.6,3.6-3.6s3.6,1.6,3.6,3.6
		C1273.3,821.6,1271.7,823.2,1269.7,823.2z"/>
	<path class="st0" d="M1269.7,834.5c-5,0-9.1,4.1-9.1,9.1c0,5,4.1,9.1,9.1,9.1s9.1-4.1,9.1-9.1
		C1278.8,838.6,1274.7,834.5,1269.7,834.5z M1269.7,847.2c-2,0-3.6-1.6-3.6-3.6s1.6-3.6,3.6-3.6s3.6,1.6,3.6,3.6
		S1271.7,847.2,1269.7,847.2z"/>
	<path class="st0" d="M1269.7,858.5c-5,0-9.1,4.1-9.1,9.1c0,5,4.1,9.1,9.1,9.1s9.1-4.1,9.1-9.1
		C1278.8,862.6,1274.7,858.5,1269.7,858.5z M1269.7,871.2c-2,0-3.6-1.6-3.6-3.6c0-2,1.6-3.6,3.6-3.6s3.6,1.6,3.6,3.6
		C1273.3,869.6,1271.7,871.2,1269.7,871.2z"/>
</g>
</svg>
